<mxfile host="Electron" modified="2023-12-08T20:56:22.947Z" agent="Mozilla/5.0 (Windows NT 10.0; Win64; x64) AppleWebKit/537.36 (KHTML, like Gecko) draw.io/22.1.2 Chrome/114.0.5735.289 Electron/25.9.4 Safari/537.36" etag="f3LbKu2LbUk_fafdAMfB" version="22.1.2" type="device">
  <diagram name="Page-1" id="Kn9xfrZ6pg-m6TRDeD4j">
    <mxGraphModel dx="1928" dy="633" grid="1" gridSize="10" guides="1" tooltips="1" connect="1" arrows="1" fold="1" page="1" pageScale="1" pageWidth="850" pageHeight="1100" math="0" shadow="0">
      <root>
        <mxCell id="0" />
        <mxCell id="1" parent="0" />
        <mxCell id="-mV25dG9owIUOaXP-vob-1" value="UI" style="shape=umlFrame;whiteSpace=wrap;html=1;pointerEvents=0;" vertex="1" parent="1">
          <mxGeometry x="-651" y="200" width="340" height="220" as="geometry" />
        </mxCell>
        <mxCell id="-mV25dG9owIUOaXP-vob-5" value="Current weather&amp;nbsp;&lt;br&gt;elements" style="shape=module;align=left;spacingLeft=20;align=center;verticalAlign=top;whiteSpace=wrap;html=1;" vertex="1" parent="1">
          <mxGeometry x="-501" y="230" width="100" height="60" as="geometry" />
        </mxCell>
        <mxCell id="-mV25dG9owIUOaXP-vob-6" value="Daily&lt;br&gt;forecast &lt;br&gt;elemetns" style="shape=module;align=left;spacingLeft=20;align=center;verticalAlign=top;whiteSpace=wrap;html=1;" vertex="1" parent="1">
          <mxGeometry x="-450" y="340" width="110" height="60" as="geometry" />
        </mxCell>
        <mxCell id="-mV25dG9owIUOaXP-vob-7" value="Search &lt;br&gt;elements" style="shape=module;align=left;spacingLeft=20;align=center;verticalAlign=top;whiteSpace=wrap;html=1;" vertex="1" parent="1">
          <mxGeometry x="-641" y="280" width="100" height="50" as="geometry" />
        </mxCell>
        <mxCell id="-mV25dG9owIUOaXP-vob-9" value="WeatherApp.java" style="swimlane;fontStyle=0;childLayout=stackLayout;horizontal=1;startSize=26;fillColor=none;horizontalStack=0;resizeParent=1;resizeParentMax=0;resizeLast=0;collapsible=1;marginBottom=0;whiteSpace=wrap;html=1;" vertex="1" parent="1">
          <mxGeometry x="-140" y="70" width="140" height="208" as="geometry" />
        </mxCell>
        <mxCell id="-mV25dG9owIUOaXP-vob-10" value="CurrentWeatherPanel" style="text;strokeColor=none;fillColor=none;align=left;verticalAlign=top;spacingLeft=4;spacingRight=4;overflow=hidden;rotatable=0;points=[[0,0.5],[1,0.5]];portConstraint=eastwest;whiteSpace=wrap;html=1;" vertex="1" parent="-mV25dG9owIUOaXP-vob-9">
          <mxGeometry y="26" width="140" height="26" as="geometry" />
        </mxCell>
        <mxCell id="-mV25dG9owIUOaXP-vob-12" value="LocationPanel" style="text;strokeColor=none;fillColor=none;align=left;verticalAlign=top;spacingLeft=4;spacingRight=4;overflow=hidden;rotatable=0;points=[[0,0.5],[1,0.5]];portConstraint=eastwest;whiteSpace=wrap;html=1;" vertex="1" parent="-mV25dG9owIUOaXP-vob-9">
          <mxGeometry y="52" width="140" height="26" as="geometry" />
        </mxCell>
        <mxCell id="-mV25dG9owIUOaXP-vob-11" value="DailyForecastPanel" style="text;strokeColor=none;fillColor=none;align=left;verticalAlign=top;spacingLeft=4;spacingRight=4;overflow=hidden;rotatable=0;points=[[0,0.5],[1,0.5]];portConstraint=eastwest;whiteSpace=wrap;html=1;" vertex="1" parent="-mV25dG9owIUOaXP-vob-9">
          <mxGeometry y="78" width="140" height="26" as="geometry" />
        </mxCell>
        <mxCell id="-mV25dG9owIUOaXP-vob-40" value="HourlyForecastPanel" style="text;strokeColor=none;fillColor=none;align=left;verticalAlign=top;spacingLeft=4;spacingRight=4;overflow=hidden;rotatable=0;points=[[0,0.5],[1,0.5]];portConstraint=eastwest;whiteSpace=wrap;html=1;" vertex="1" parent="-mV25dG9owIUOaXP-vob-9">
          <mxGeometry y="104" width="140" height="26" as="geometry" />
        </mxCell>
        <mxCell id="-mV25dG9owIUOaXP-vob-62" style="text;strokeColor=none;fillColor=none;align=left;verticalAlign=top;spacingLeft=4;spacingRight=4;overflow=hidden;rotatable=0;points=[[0,0.5],[1,0.5]];portConstraint=eastwest;whiteSpace=wrap;html=1;" vertex="1" parent="-mV25dG9owIUOaXP-vob-9">
          <mxGeometry y="130" width="140" height="26" as="geometry" />
        </mxCell>
        <mxCell id="-mV25dG9owIUOaXP-vob-13" value="iAPI apiService" style="text;strokeColor=none;fillColor=none;align=left;verticalAlign=top;spacingLeft=4;spacingRight=4;overflow=hidden;rotatable=0;points=[[0,0.5],[1,0.5]];portConstraint=eastwest;whiteSpace=wrap;html=1;" vertex="1" parent="-mV25dG9owIUOaXP-vob-9">
          <mxGeometry y="156" width="140" height="26" as="geometry" />
        </mxCell>
        <mxCell id="-mV25dG9owIUOaXP-vob-15" value="GlobalVm globalVm" style="text;strokeColor=none;fillColor=none;align=left;verticalAlign=top;spacingLeft=4;spacingRight=4;overflow=hidden;rotatable=0;points=[[0,0.5],[1,0.5]];portConstraint=eastwest;whiteSpace=wrap;html=1;" vertex="1" parent="-mV25dG9owIUOaXP-vob-9">
          <mxGeometry y="182" width="140" height="26" as="geometry" />
        </mxCell>
        <mxCell id="-mV25dG9owIUOaXP-vob-22" value="Start()" style="edgeStyle=orthogonalEdgeStyle;rounded=0;orthogonalLoop=1;jettySize=auto;html=1;entryX=0.756;entryY=-0.014;entryDx=0;entryDy=0;entryPerimeter=0;exitX=-0.014;exitY=0.064;exitDx=0;exitDy=0;exitPerimeter=0;" edge="1" parent="1" source="-mV25dG9owIUOaXP-vob-9" target="-mV25dG9owIUOaXP-vob-1">
          <mxGeometry relative="1" as="geometry">
            <Array as="points">
              <mxPoint x="-235" y="83" />
              <mxPoint x="-235" y="130" />
              <mxPoint x="-394" y="130" />
            </Array>
          </mxGeometry>
        </mxCell>
        <mxCell id="-mV25dG9owIUOaXP-vob-28" value="bind()" style="edgeStyle=orthogonalEdgeStyle;rounded=0;orthogonalLoop=1;jettySize=auto;html=1;entryX=0.5;entryY=1;entryDx=0;entryDy=0;curved=1;fillColor=#fa6800;strokeColor=#C73500;" edge="1" source="-mV25dG9owIUOaXP-vob-29" parent="1" target="-mV25dG9owIUOaXP-vob-7">
          <mxGeometry relative="1" as="geometry">
            <mxPoint x="-441" y="270" as="targetPoint" />
          </mxGeometry>
        </mxCell>
        <mxCell id="-mV25dG9owIUOaXP-vob-29" value="LocationViewModel" style="html=1;whiteSpace=wrap;" vertex="1" parent="1">
          <mxGeometry x="-641" y="525" width="130" height="50" as="geometry" />
        </mxCell>
        <mxCell id="-mV25dG9owIUOaXP-vob-30" value="bind()" style="edgeStyle=orthogonalEdgeStyle;rounded=0;orthogonalLoop=1;jettySize=auto;html=1;entryX=0.5;entryY=1;entryDx=0;entryDy=0;curved=1;fillColor=#fa6800;strokeColor=#C73500;" edge="1" source="-mV25dG9owIUOaXP-vob-31" parent="1" target="-mV25dG9owIUOaXP-vob-6">
          <mxGeometry relative="1" as="geometry">
            <mxPoint x="-651.5" y="550" as="targetPoint" />
          </mxGeometry>
        </mxCell>
        <mxCell id="-mV25dG9owIUOaXP-vob-31" value="ForecastViewModel" style="html=1;whiteSpace=wrap;" vertex="1" parent="1">
          <mxGeometry x="-515" y="465" width="129" height="50" as="geometry" />
        </mxCell>
        <mxCell id="-mV25dG9owIUOaXP-vob-32" value="«interface»&lt;br&gt;&lt;b&gt;iAPI.java&lt;/b&gt;" style="html=1;whiteSpace=wrap;" vertex="1" parent="1">
          <mxGeometry x="-441" y="729" width="110" height="50" as="geometry" />
        </mxCell>
        <mxCell id="-mV25dG9owIUOaXP-vob-60" value="Implement" style="edgeStyle=orthogonalEdgeStyle;rounded=0;orthogonalLoop=1;jettySize=auto;html=1;entryX=0;entryY=0.5;entryDx=0;entryDy=0;fillColor=#0050ef;strokeColor=#001DBC;" edge="1" parent="1" source="-mV25dG9owIUOaXP-vob-33" target="-mV25dG9owIUOaXP-vob-32">
          <mxGeometry relative="1" as="geometry" />
        </mxCell>
        <mxCell id="-mV25dG9owIUOaXP-vob-33" value="&lt;font style=&quot;font-size: 12px;&quot;&gt;WeatherApi.java&lt;/font&gt;" style="swimlane;fontStyle=0;childLayout=stackLayout;horizontal=1;startSize=30;horizontalStack=0;resizeParent=1;resizeParentMax=0;resizeLast=0;collapsible=1;marginBottom=0;whiteSpace=wrap;html=1;fontSize=10;" vertex="1" parent="1">
          <mxGeometry x="-815" y="679" width="280" height="150" as="geometry" />
        </mxCell>
        <mxCell id="-mV25dG9owIUOaXP-vob-34" value="&lt;font style=&quot;font-size: 10px;&quot;&gt;Response lookUpLocation(String loc)&lt;/font&gt;" style="text;strokeColor=none;fillColor=none;align=left;verticalAlign=middle;spacingLeft=4;spacingRight=4;overflow=hidden;points=[[0,0.5],[1,0.5]];portConstraint=eastwest;rotatable=0;whiteSpace=wrap;html=1;" vertex="1" parent="-mV25dG9owIUOaXP-vob-33">
          <mxGeometry y="30" width="280" height="30" as="geometry" />
        </mxCell>
        <mxCell id="-mV25dG9owIUOaXP-vob-35" value="Response getCurrentWeather(double lat, double lon)" style="text;strokeColor=none;fillColor=none;align=left;verticalAlign=middle;spacingLeft=4;spacingRight=4;overflow=hidden;points=[[0,0.5],[1,0.5]];portConstraint=eastwest;rotatable=0;whiteSpace=wrap;html=1;fontSize=10;" vertex="1" parent="-mV25dG9owIUOaXP-vob-33">
          <mxGeometry y="60" width="280" height="30" as="geometry" />
        </mxCell>
        <mxCell id="-mV25dG9owIUOaXP-vob-36" value="Response getForecast(double lat, double lon)" style="text;strokeColor=none;fillColor=none;align=left;verticalAlign=middle;spacingLeft=4;spacingRight=4;overflow=hidden;points=[[0,0.5],[1,0.5]];portConstraint=eastwest;rotatable=0;whiteSpace=wrap;html=1;fontSize=10;" vertex="1" parent="-mV25dG9owIUOaXP-vob-33">
          <mxGeometry y="90" width="280" height="30" as="geometry" />
        </mxCell>
        <mxCell id="-mV25dG9owIUOaXP-vob-39" value="Response getHourlyForecast(double lat, double lon)" style="text;strokeColor=none;fillColor=none;align=left;verticalAlign=middle;spacingLeft=4;spacingRight=4;overflow=hidden;points=[[0,0.5],[1,0.5]];portConstraint=eastwest;rotatable=0;whiteSpace=wrap;html=1;fontSize=10;" vertex="1" parent="-mV25dG9owIUOaXP-vob-33">
          <mxGeometry y="120" width="280" height="30" as="geometry" />
        </mxCell>
        <mxCell id="-mV25dG9owIUOaXP-vob-41" value="DailyForecastPanel" style="swimlane;fontStyle=0;childLayout=stackLayout;horizontal=1;startSize=30;horizontalStack=0;resizeParent=1;resizeParentMax=0;resizeLast=0;collapsible=1;marginBottom=0;whiteSpace=wrap;html=1;" vertex="1" parent="1">
          <mxGeometry x="-190" y="290" width="140" height="90" as="geometry" />
        </mxCell>
        <mxCell id="-mV25dG9owIUOaXP-vob-42" value="create()" style="text;strokeColor=none;fillColor=none;align=left;verticalAlign=middle;spacingLeft=4;spacingRight=4;overflow=hidden;points=[[0,0.5],[1,0.5]];portConstraint=eastwest;rotatable=0;whiteSpace=wrap;html=1;" vertex="1" parent="-mV25dG9owIUOaXP-vob-41">
          <mxGeometry y="30" width="140" height="30" as="geometry" />
        </mxCell>
        <mxCell id="-mV25dG9owIUOaXP-vob-43" value="updateInformation()" style="text;strokeColor=none;fillColor=none;align=left;verticalAlign=middle;spacingLeft=4;spacingRight=4;overflow=hidden;points=[[0,0.5],[1,0.5]];portConstraint=eastwest;rotatable=0;whiteSpace=wrap;html=1;" vertex="1" parent="-mV25dG9owIUOaXP-vob-41">
          <mxGeometry y="60" width="140" height="30" as="geometry" />
        </mxCell>
        <mxCell id="-mV25dG9owIUOaXP-vob-45" value="LocationPanel" style="swimlane;fontStyle=0;childLayout=stackLayout;horizontal=1;startSize=30;horizontalStack=0;resizeParent=1;resizeParentMax=0;resizeLast=0;collapsible=1;marginBottom=0;whiteSpace=wrap;html=1;" vertex="1" parent="1">
          <mxGeometry x="-190" y="510" width="168" height="120" as="geometry" />
        </mxCell>
        <mxCell id="-mV25dG9owIUOaXP-vob-46" value="create()" style="text;strokeColor=none;fillColor=none;align=left;verticalAlign=middle;spacingLeft=4;spacingRight=4;overflow=hidden;points=[[0,0.5],[1,0.5]];portConstraint=eastwest;rotatable=0;whiteSpace=wrap;html=1;" vertex="1" parent="-mV25dG9owIUOaXP-vob-45">
          <mxGeometry y="30" width="168" height="30" as="geometry" />
        </mxCell>
        <mxCell id="-mV25dG9owIUOaXP-vob-47" value="OnSearch()" style="text;strokeColor=none;fillColor=none;align=left;verticalAlign=middle;spacingLeft=4;spacingRight=4;overflow=hidden;points=[[0,0.5],[1,0.5]];portConstraint=eastwest;rotatable=0;whiteSpace=wrap;html=1;" vertex="1" parent="-mV25dG9owIUOaXP-vob-45">
          <mxGeometry y="60" width="168" height="30" as="geometry" />
        </mxCell>
        <mxCell id="-mV25dG9owIUOaXP-vob-55" value="OnSelectedIndexChanged()" style="text;strokeColor=none;fillColor=none;align=left;verticalAlign=middle;spacingLeft=4;spacingRight=4;overflow=hidden;points=[[0,0.5],[1,0.5]];portConstraint=eastwest;rotatable=0;whiteSpace=wrap;html=1;" vertex="1" parent="-mV25dG9owIUOaXP-vob-45">
          <mxGeometry y="90" width="168" height="30" as="geometry" />
        </mxCell>
        <mxCell id="-mV25dG9owIUOaXP-vob-49" style="edgeStyle=orthogonalEdgeStyle;rounded=0;orthogonalLoop=1;jettySize=auto;html=1;entryX=0.988;entryY=0.169;entryDx=0;entryDy=0;exitX=1.009;exitY=0.729;exitDx=0;exitDy=0;entryPerimeter=0;exitPerimeter=0;fillColor=#d80073;strokeColor=#A50040;" edge="1" parent="1" source="-mV25dG9owIUOaXP-vob-11" target="-mV25dG9owIUOaXP-vob-41">
          <mxGeometry relative="1" as="geometry">
            <mxPoint y="161" as="sourcePoint" />
            <mxPoint x="-50.559999999999945" y="305.03" as="targetPoint" />
            <Array as="points">
              <mxPoint x="20" y="167" />
              <mxPoint x="20" y="305" />
            </Array>
          </mxGeometry>
        </mxCell>
        <mxCell id="-mV25dG9owIUOaXP-vob-51" style="edgeStyle=orthogonalEdgeStyle;rounded=0;orthogonalLoop=1;jettySize=auto;html=1;exitX=1;exitY=0.5;exitDx=0;exitDy=0;entryX=1.012;entryY=0.149;entryDx=0;entryDy=0;entryPerimeter=0;fillColor=#d80073;strokeColor=#A50040;" edge="1" parent="1" source="-mV25dG9owIUOaXP-vob-12" target="-mV25dG9owIUOaXP-vob-45">
          <mxGeometry relative="1" as="geometry">
            <mxPoint x="-40" y="584" as="targetPoint" />
            <Array as="points">
              <mxPoint x="40" y="135" />
              <mxPoint x="40" y="528" />
            </Array>
          </mxGeometry>
        </mxCell>
        <mxCell id="-mV25dG9owIUOaXP-vob-53" value="Update" style="edgeStyle=orthogonalEdgeStyle;rounded=0;orthogonalLoop=1;jettySize=auto;html=1;entryX=1;entryY=0.5;entryDx=0;entryDy=0;fillColor=#6a00ff;strokeColor=#3700CC;exitX=1;exitY=0.5;exitDx=0;exitDy=0;" edge="1" parent="1" source="-mV25dG9owIUOaXP-vob-43" target="-mV25dG9owIUOaXP-vob-31">
          <mxGeometry relative="1" as="geometry" />
        </mxCell>
        <mxCell id="-mV25dG9owIUOaXP-vob-54" value="Update" style="edgeStyle=orthogonalEdgeStyle;rounded=0;orthogonalLoop=1;jettySize=auto;html=1;entryX=1;entryY=0.5;entryDx=0;entryDy=0;fillColor=#6a00ff;strokeColor=#3700CC;exitX=1;exitY=0.5;exitDx=0;exitDy=0;" edge="1" parent="1" source="-mV25dG9owIUOaXP-vob-47" target="-mV25dG9owIUOaXP-vob-29">
          <mxGeometry x="0.392" y="10" relative="1" as="geometry">
            <Array as="points">
              <mxPoint x="-2" y="585" />
              <mxPoint x="-2" y="650" />
              <mxPoint x="-460" y="650" />
              <mxPoint x="-460" y="550" />
            </Array>
            <mxPoint as="offset" />
          </mxGeometry>
        </mxCell>
        <mxCell id="-mV25dG9owIUOaXP-vob-57" style="edgeStyle=orthogonalEdgeStyle;rounded=0;orthogonalLoop=1;jettySize=auto;html=1;entryX=1;entryY=0.5;entryDx=0;entryDy=0;fillColor=#008a00;strokeColor=#005700;" edge="1" parent="1" source="-mV25dG9owIUOaXP-vob-47" target="-mV25dG9owIUOaXP-vob-32">
          <mxGeometry relative="1" as="geometry">
            <Array as="points">
              <mxPoint x="-260" y="585" />
              <mxPoint x="-260" y="754" />
            </Array>
          </mxGeometry>
        </mxCell>
        <mxCell id="-mV25dG9owIUOaXP-vob-58" value="Get Weather info" style="edgeStyle=orthogonalEdgeStyle;rounded=0;orthogonalLoop=1;jettySize=auto;html=1;entryX=1;entryY=0.5;entryDx=0;entryDy=0;fillColor=#008a00;strokeColor=#005700;" edge="1" parent="1" source="-mV25dG9owIUOaXP-vob-43" target="-mV25dG9owIUOaXP-vob-32">
          <mxGeometry x="0.6038" relative="1" as="geometry">
            <Array as="points">
              <mxPoint x="-230" y="365" />
              <mxPoint x="-230" y="520" />
              <mxPoint x="-300" y="520" />
              <mxPoint x="-300" y="754" />
            </Array>
            <mxPoint as="offset" />
          </mxGeometry>
        </mxCell>
        <mxCell id="-mV25dG9owIUOaXP-vob-64" style="edgeStyle=orthogonalEdgeStyle;rounded=0;orthogonalLoop=1;jettySize=auto;html=1;entryX=1;entryY=0.5;entryDx=0;entryDy=0;fillColor=#1ba1e2;strokeColor=#006EAF;" edge="1" parent="1" source="-mV25dG9owIUOaXP-vob-42" target="-mV25dG9owIUOaXP-vob-6">
          <mxGeometry relative="1" as="geometry" />
        </mxCell>
        <mxCell id="-mV25dG9owIUOaXP-vob-65" style="edgeStyle=orthogonalEdgeStyle;rounded=0;orthogonalLoop=1;jettySize=auto;html=1;entryX=1;entryY=0.5;entryDx=0;entryDy=0;fillColor=#1ba1e2;strokeColor=#006EAF;" edge="1" parent="1" source="-mV25dG9owIUOaXP-vob-46" target="-mV25dG9owIUOaXP-vob-7">
          <mxGeometry relative="1" as="geometry">
            <Array as="points">
              <mxPoint x="-260" y="555" />
              <mxPoint x="-260" y="305" />
            </Array>
          </mxGeometry>
        </mxCell>
        <mxCell id="-mV25dG9owIUOaXP-vob-66" value="Hourly&lt;br&gt;Forecast&lt;br&gt;element" style="shape=module;align=left;spacingLeft=20;align=center;verticalAlign=top;whiteSpace=wrap;html=1;" vertex="1" parent="1">
          <mxGeometry x="-570" y="340" width="100" height="60" as="geometry" />
        </mxCell>
      </root>
    </mxGraphModel>
  </diagram>
</mxfile>
